<?xml version="1.0" ?><svg viewBox="0 0 64 64" xmlns="http://www.w3.org/2000/svg"><title/><g id="Discount"><path d="M61.5894,44.5781,43.5591,7.94a4.0025,4.0025,0,0,0-4.1221-2.2l-16.66,2.27c-.0314.0043-.0576.0207-.0879.0278a.9494.9494,0,0,0-.0938.0152l-8.2427,2.7493L3.6245,2.2188a1,1,0,0,0-1.249,1.5625l9.7172,7.7737L6.6509,13.37a3.9751,3.9751,0,0,0-2.7393,3.79V58a4.0043,4.0043,0,0,0,4,4h30a3.9489,3.9489,0,0,0,3.9078-3.2371l17.9438-8.8254A4.0094,4.0094,0,0,0,61.5894,44.5781ZM39.9116,57.96a1.0186,1.0186,0,0,0-.0093.1152A1.9717,1.9717,0,0,1,37.9116,60h-30a2.0023,2.0023,0,0,1-2-2V17.16a1.9822,1.9822,0,0,1,1.3667-1.8916l6.6737-2.2262,5.3435,4.2749A3.9578,3.9578,0,0,0,18.9116,19a4,4,0,1,0,4-4,3.9643,3.9643,0,0,0-2.3435.7736l-4.3563-3.485,6.7-2.2348,15.6393,5.2167a1.98,1.98,0,0,1,1.3608,1.89ZM23.6245,18.2188,22.252,17.1207a1.9741,1.9741,0,0,1,.66-.1207,2.0226,2.0226,0,1,1-1.9635,1.6393l1.4274,1.142a1,1,0,0,0,1.249-1.5625ZM58.8813,48.1426H58.88L41.9116,56.4883V17.16a3.9731,3.9731,0,0,0-2.7334-3.7881L27.3037,9.4111l12.4-1.6894a2,2,0,0,1,2.06,1.1l18.03,36.6377A2.0072,2.0072,0,0,1,58.8813,48.1426Z"/><path d="M16.6855,39.5449A4.7688,4.7688,0,1,0,13.31,38.1494,4.7584,4.7584,0,0,0,16.6855,39.5449Zm-1.9614-6.7324a2.775,2.775,0,1,1-.812,1.9619A2.763,2.763,0,0,1,14.7241,32.8125Z"/><path d="M25.7627,43.8506a4.7734,4.7734,0,1,0,6.751,0A4.7408,4.7408,0,0,0,25.7627,43.8506ZM31.1,49.1875a2.775,2.775,0,1,1,.812-1.9619A2.7778,2.7778,0,0,1,31.1,49.1875Z"/><path d="M32.5137,31.3984a1,1,0,0,0-1.4141,0L13.31,49.1875a1,1,0,1,0,1.414,1.4141l17.79-17.7891A1,1,0,0,0,32.5137,31.3984Z"/></g></svg>